<svg xmlns="http://www.w3.org/2000/svg" xmlns:xlink="http://www.w3.org/1999/xlink" viewBox="0,0,256,256" width="100px" height="100px" fill-rule="nonzero"><g fill="#ef9aa1" fill-rule="nonzero" stroke="none" stroke-width="1" stroke-linecap="butt" stroke-linejoin="miter" stroke-miterlimit="10" stroke-dasharray="" stroke-dashoffset="0" font-family="none" font-weight="none" font-size="none" text-anchor="none" style="mix-blend-mode: normal"><g transform="scale(5.12,5.12)"><path d="M26.3125,0c-6.05469,0 -11.89062,1.87891 -16.21875,5.8125c-4.32812,3.93359 -7.09375,9.89844 -7.09375,17.875c0,13.01563 10.08203,26.3125 24.40625,26.3125h0.21875c1.59375,-0.02734 3.14453,-0.33203 4.57031,-0.90625c-0.55469,-0.47656 -1.06641,-1.00391 -1.52734,-1.57422c-0.96875,0.29688 -2.00391,0.46094 -3.07422,0.48047h-0.1875c-13.07812,0 -22.40625,-12.33203 -22.40625,-24.3125c0,-7.52344 2.53906,-12.86328 6.4375,-16.40625c3.89844,-3.54297 9.23047,-5.28125 14.875,-5.28125c7.59766,0 12.5,2.28516 15.53125,5.03125c3.03125,2.74609 4.15625,6.0625 4.15625,7.875c0.04688,6.73047 -2.96094,9.22656 -5.875,11.34375c-0.95312,0.69141 -1.90625,1.31641 -2.73047,2.03516c0.83984,-0.1875 1.71094,-0.28516 2.60547,-0.28516c0.36328,0 0.71875,0.01563 1.07422,0.04688c0.07813,-0.05469 0.16016,-0.11328 0.23828,-0.17187c3.03516,-2.20703 6.73828,-5.60156 6.6875,-12.96875c0,-2.58594 -1.42187,-6.24219 -4.84375,-9.34375c-3.42187,-3.10156 -8.83984,-5.5625 -16.84375,-5.5625zM26.5,5c-1.3125,0 -2.46484,0.71094 -3.25,1.71875c-0.78516,1.00781 -1.25,2.32813 -1.25,3.78125c0,1.45313 0.46484,2.77344 1.25,3.78125c0.78516,1.00781 1.9375,1.71875 3.25,1.71875c1.3125,0 2.46484,-0.71094 3.25,-1.71875c0.78516,-1.00781 1.25,-2.32812 1.25,-3.78125c0,-1.45312 -0.46484,-2.77344 -1.25,-3.78125c-0.78516,-1.00781 -1.9375,-1.71875 -3.25,-1.71875zM26.5,7c0.61719,0 1.20313,0.31641 1.6875,0.9375c0.48438,0.62109 0.8125,1.53125 0.8125,2.5625c0,1.03125 -0.32812,1.94141 -0.8125,2.5625c-0.48437,0.62109 -1.07031,0.9375 -1.6875,0.9375c-0.61719,0 -1.20703,-0.32031 -1.6875,-0.9375c-0.48437,-0.62109 -0.8125,-1.53125 -0.8125,-2.5625c0,-1.03125 0.32813,-1.94531 0.8125,-2.5625c0.48047,-0.62109 1.07031,-0.9375 1.6875,-0.9375zM15.5,10c-1.3125,0 -2.46484,0.71094 -3.25,1.71875c-0.78516,1.00781 -1.25,2.32813 -1.25,3.78125c0,1.45313 0.46484,2.77344 1.25,3.78125c0.78516,1.00781 1.9375,1.71875 3.25,1.71875c1.3125,0 2.46484,-0.71094 3.25,-1.71875c0.78516,-1.00781 1.25,-2.32812 1.25,-3.78125c0,-1.45312 -0.46484,-2.77344 -1.25,-3.78125c-0.78516,-1.00781 -1.9375,-1.71875 -3.25,-1.71875zM37.5,10c-1.3125,0 -2.46484,0.71094 -3.25,1.71875c-0.78516,1.00781 -1.25,2.32813 -1.25,3.78125c0,1.45313 0.46484,2.77344 1.25,3.78125c0.78516,1.00781 1.9375,1.71875 3.25,1.71875c1.3125,0 2.46484,-0.71094 3.25,-1.71875c0.78516,-1.00781 1.25,-2.32812 1.25,-3.78125c0,-1.45312 -0.46484,-2.77344 -1.25,-3.78125c-0.78516,-1.00781 -1.9375,-1.71875 -3.25,-1.71875zM15.5,12c0.61719,0 1.20703,0.32031 1.6875,0.9375c0.48438,0.62109 0.8125,1.53125 0.8125,2.5625c0,1.03125 -0.32812,1.94141 -0.8125,2.5625c-0.48437,0.62109 -1.07031,0.9375 -1.6875,0.9375c-0.61719,0 -1.20312,-0.31641 -1.6875,-0.9375c-0.48437,-0.62109 -0.8125,-1.53125 -0.8125,-2.5625c0,-1.03125 0.32813,-1.94531 0.8125,-2.5625c0.48047,-0.62109 1.07031,-0.9375 1.6875,-0.9375zM37.5,12c0.61719,0 1.20703,0.32031 1.6875,0.9375c0.48438,0.62109 0.8125,1.53125 0.8125,2.5625c0,1.03125 -0.32812,1.94141 -0.8125,2.5625c-0.48437,0.62109 -1.07031,0.9375 -1.6875,0.9375c-0.61719,0 -1.20312,-0.31641 -1.6875,-0.9375c-0.48437,-0.62109 -0.8125,-1.53125 -0.8125,-2.5625c0,-1.03125 0.32813,-1.94531 0.8125,-2.5625c0.48047,-0.62109 1.07031,-0.9375 1.6875,-0.9375zM14.5,23c-1.3125,0 -2.46484,0.71094 -3.25,1.71875c-0.78516,1.00781 -1.25,2.32813 -1.25,3.78125c0,1.45313 0.46484,2.77344 1.25,3.78125c0.78516,1.00781 1.9375,1.71875 3.25,1.71875c1.3125,0 2.46484,-0.71094 3.25,-1.71875c0.78516,-1.00781 1.25,-2.32812 1.25,-3.78125c0,-1.45312 -0.46484,-2.77344 -1.25,-3.78125c-0.78516,-1.00781 -1.9375,-1.71875 -3.25,-1.71875zM14.5,25c0.61719,0 1.20313,0.31641 1.6875,0.9375c0.48438,0.62109 0.8125,1.53125 0.8125,2.5625c0,1.03125 -0.32812,1.94141 -0.8125,2.5625c-0.48437,0.62109 -1.07031,0.9375 -1.6875,0.9375c-0.61719,0 -1.20312,-0.31641 -1.6875,-0.9375c-0.48437,-0.62109 -0.8125,-1.53125 -0.8125,-2.5625c0,-1.03125 0.32813,-1.94531 0.8125,-2.5625c0.48047,-0.62109 1.07031,-0.9375 1.6875,-0.9375zM40,30c-5.5,0 -10,4.5 -10,10c0,5.5 4.5,10 10,10c5.5,0 10,-4.5 10,-10c0,-5.5 -4.5,-10 -10,-10zM40,32c4.39844,0 8,3.60156 8,8c0,4.39844 -3.60156,8 -8,8c-4.39844,0 -8,-3.60156 -8,-8c0,-4.39844 3.60156,-8 8,-8zM27,33c-3.32422,0 -6,2.67578 -6,6c0,3.32422 2.67578,6 6,6c0.68359,0 1.34375,-0.11328 1.95313,-0.32422c-0.25781,-0.60156 -0.46875,-1.23437 -0.625,-1.88672c-0.41016,0.13672 -0.85937,0.21094 -1.32812,0.21094c-2.27734,0 -4,-1.72266 -4,-4c0,-2.27734 1.72266,-4 4,-4c0.69531,0 1.33984,0.16016 1.90234,0.45313c0.25,-0.61719 0.55469,-1.20312 0.90234,-1.76562c-0.83594,-0.4375 -1.78906,-0.6875 -2.80469,-0.6875zM39.69922,33.40234v1.5c-0.89844,0 -2.79687,0.69531 -2.79687,2.79688c0,3.5 4.5,2.60156 4.5,4.80078c0,0.19922 -0.00391,1.19922 -1.30469,1.19922c-1.5,0 -1.5,-1.39844 -1.5,-1.69922h-2c0,3 2.60156,3.30078 3,3.30078v1.39844h1.10156v-1.39844c0.39844,0 2.80078,-0.30078 2.80078,-2.80078c0,-3.5 -4.5,-2.69922 -4.5,-4.80078c0,-0.19922 0,-1.19922 1.09766,-1.29687c1.20313,0 1.30469,1.09766 1.30469,1.69531h2c0,-2.59766 -1.90234,-3.09766 -2.60156,-3.19531v-1.5z"></path></g></g></svg>