<svg xmlns="http://www.w3.org/2000/svg" xmlns:xlink="http://www.w3.org/1999/xlink" viewBox="0,0,256,256" width="100px" height="100px" fill-rule="nonzero"><g fill="#ea6272" fill-rule="nonzero" stroke="none" stroke-width="1" stroke-linecap="butt" stroke-linejoin="miter" stroke-miterlimit="10" stroke-dasharray="" stroke-dashoffset="0" font-family="none" font-weight="none" font-size="none" text-anchor="none" style="mix-blend-mode: normal"><g transform="scale(5.12,5.12)"><path d="M14.96289,1c-0.53772,0.02002 -0.96321,0.46191 -0.96289,1v8h-1c-1.64545,0 -3,1.35455 -3,3v33c0,1.64545 1.35455,3 3,3h24c1.64545,0 3,-1.35455 3,-3v-33c0,-1.64545 -1.35455,-3 -3,-3h-1v-8c-0.00001,-0.34659 -0.17947,-0.66846 -0.47429,-0.85069c-0.29482,-0.18222 -0.66297,-0.19881 -0.97298,-0.04385l-1.55273,0.77734l-1.55273,-0.77734c-0.28156,-0.14078 -0.61297,-0.14078 -0.89453,0l-1.55273,0.77734l-1.55273,-0.77734c-0.28156,-0.14078 -0.61297,-0.14078 -0.89453,0l-1.55273,0.77734l-1.55273,-0.77734c-0.28156,-0.14078 -0.61297,-0.14078 -0.89453,0l-1.55273,0.77734l-1.55273,-0.77734c-0.28156,-0.14078 -0.61297,-0.14078 -0.89453,0l-1.55273,0.77734l-1.55273,-0.77734c-0.15005,-0.07525 -0.31662,-0.11152 -0.48437,-0.10547zM19,3.11719l1.55273,0.77734c0.28156,0.14078 0.61297,0.14078 0.89453,0l1.55273,-0.77734l1.55273,0.77734c0.28156,0.14078 0.61297,0.14078 0.89453,0l1.55273,-0.77734l1.55273,0.77734c0.28156,0.14078 0.61297,0.14078 0.89453,0l1.55273,-0.77734l1.55273,0.77734c0.28156,0.14078 0.61297,0.14078 0.89453,0l0.55273,-0.27734v7.21484c-0.01785,0.10799 -0.01785,0.21818 0,0.32617v3.8418h-18v-3.83203c0.01785,-0.10799 0.01785,-0.21818 0,-0.32617v-7.22461l0.55273,0.27734c0.28156,0.14078 0.61297,0.14078 0.89453,0zM19,7c-0.36064,-0.0051 -0.69608,0.18438 -0.87789,0.49587c-0.18181,0.3115 -0.18181,0.69676 0,1.00825c0.18181,0.3115 0.51725,0.50097 0.87789,0.49587h5c0.36064,0.0051 0.69608,-0.18438 0.87789,-0.49587c0.18181,-0.3115 0.18181,-0.69676 0,-1.00825c-0.18181,-0.3115 -0.51725,-0.50097 -0.87789,-0.49587zM29,7c-0.36064,-0.0051 -0.69608,0.18438 -0.87789,0.49587c-0.18181,0.3115 -0.18181,0.69676 0,1.00825c0.18181,0.3115 0.51725,0.50097 0.87789,0.49587h2c0.36064,0.0051 0.69608,-0.18438 0.87789,-0.49587c0.18181,-0.3115 0.18181,-0.69676 0,-1.00825c-0.18181,-0.3115 -0.51725,-0.50097 -0.87789,-0.49587zM19,11c-0.36064,-0.0051 -0.69608,0.18438 -0.87789,0.49587c-0.18181,0.3115 -0.18181,0.69676 0,1.00825c0.18181,0.3115 0.51725,0.50097 0.87789,0.49587h5c0.36064,0.0051 0.69608,-0.18438 0.87789,-0.49587c0.18181,-0.3115 0.18181,-0.69676 0,-1.00825c-0.18181,-0.3115 -0.51725,-0.50097 -0.87789,-0.49587zM29,11c-0.36064,-0.0051 -0.69608,0.18438 -0.87789,0.49587c-0.18181,0.3115 -0.18181,0.69676 0,1.00825c0.18181,0.3115 0.51725,0.50097 0.87789,0.49587h2c0.36064,0.0051 0.69608,-0.18438 0.87789,-0.49587c0.18181,-0.3115 0.18181,-0.69676 0,-1.00825c-0.18181,-0.3115 -0.51725,-0.50097 -0.87789,-0.49587zM13,12h1v4c0.00006,0.55226 0.44774,0.99994 1,1h20c0.55226,-0.00006 0.99994,-0.44774 1,-1v-4h1c0.55454,0 1,0.44546 1,1v33c0,0.55454 -0.44546,1 -1,1h-24c-0.55454,0 -1,-0.44546 -1,-1v-33c0,-0.55454 0.44546,-1 1,-1zM16.30078,19c-1.27143,0 -2.30078,1.02935 -2.30078,2.30078v6.39844c0,1.27143 1.02935,2.30078 2.30078,2.30078h17.39844c1.27143,0 2.30078,-1.02935 2.30078,-2.30078v-6.39844c0,-1.27143 -1.02935,-2.30078 -2.30078,-2.30078zM16.30078,21h17.39844c0.12857,0 0.30078,0.17221 0.30078,0.30078v6.39844c0,0.12857 -0.17221,0.30078 -0.30078,0.30078h-17.39844c-0.12857,0 -0.30078,-0.17221 -0.30078,-0.30078v-6.39844c0,-0.12857 0.17221,-0.30078 0.30078,-0.30078zM15,32c-0.552,0 -1,0.448 -1,1v1c0,0.552 0.448,1 1,1h4c0.552,0 1,-0.448 1,-1v-1c0,-0.552 -0.448,-1 -1,-1zM23,32c-0.552,0 -1,0.448 -1,1v1c0,0.552 0.448,1 1,1h4c0.552,0 1,-0.448 1,-1v-1c0,-0.552 -0.448,-1 -1,-1zM31,32c-0.552,0 -1,0.448 -1,1v1c0,0.552 0.448,1 1,1h4c0.552,0 1,-0.448 1,-1v-1c0,-0.552 -0.448,-1 -1,-1zM15,37c-0.552,0 -1,0.448 -1,1v1c0,0.552 0.448,1 1,1h4c0.552,0 1,-0.448 1,-1v-1c0,-0.552 -0.448,-1 -1,-1zM23,37c-0.552,0 -1,0.448 -1,1v1c0,0.552 0.448,1 1,1h4c0.552,0 1,-0.448 1,-1v-1c0,-0.552 -0.448,-1 -1,-1zM31,37c-0.552,0 -1,0.448 -1,1v1c0,0.552 0.448,1 1,1h4c0.552,0 1,-0.448 1,-1v-1c0,-0.552 -0.448,-1 -1,-1zM15,42c-0.552,0 -1,0.448 -1,1v1c0,0.552 0.448,1 1,1h4c0.552,0 1,-0.448 1,-1v-1c0,-0.552 -0.448,-1 -1,-1zM23,42c-0.552,0 -1,0.448 -1,1v1c0,0.552 0.448,1 1,1h4c0.552,0 1,-0.448 1,-1v-1c0,-0.552 -0.448,-1 -1,-1zM31,42c-0.552,0 -1,0.448 -1,1v1c0,0.552 0.448,1 1,1h4c0.552,0 1,-0.448 1,-1v-1c0,-0.552 -0.448,-1 -1,-1z"></path></g></g></svg>