<svg xmlns="http://www.w3.org/2000/svg" xmlns:xlink="http://www.w3.org/1999/xlink" viewBox="0,0,256,256" width="100px" height="100px" fill-rule="nonzero"><g fill="#8f3bbb" fill-rule="nonzero" stroke="none" stroke-width="1" stroke-linecap="butt" stroke-linejoin="miter" stroke-miterlimit="10" stroke-dasharray="" stroke-dashoffset="0" font-family="none" font-weight="none" font-size="none" text-anchor="none" style="mix-blend-mode: normal"><g transform="scale(5.12,5.12)"><path d="M10,6c-0.55226,0.00006 -0.99994,0.44774 -1,1v1.04492l-1.04492,0.04688c-0.04056,0.00145 -0.081,0.00536 -0.12109,0.01172c-3.30967,0.55647 -5.83398,3.43929 -5.83398,6.89648v22c0,3.85433 3.14567,7 7,7h30c3.85433,0 7,-3.14567 7,-7v-5c1.09308,0 2,-0.90815 2,-2v-22c0,-1.09306 -0.90694,-2 -2,-2h-22c-1.09306,0 -2,0.90694 -2,2h-5v-1c-0.00006,-0.55226 -0.44774,-0.99994 -1,-1zM11,8h4v1c0.00006,0.55226 0.44774,0.99994 1,1h6v20c0,1.09306 0.90694,2 2,2h20v5c0,2.77367 -2.22633,5 -5,5h-30c-2.77367,0 -5,-2.22633 -5,-5v-22c0,-2.47714 1.78985,-4.50539 4.14063,-4.91406l1.9043,-0.08789c0.53389,-0.02406 0.95452,-0.46362 0.95508,-0.99805zM24,8h22v22h-0.83203c-0.10799,-0.01785 -0.21818,-0.01785 -0.32617,0h-20.8418v-20.83203c0.01785,-0.10799 0.01785,-0.21818 0,-0.32617zM35,11c-4.40575,0 -8,3.59425 -8,8c0,4.40575 3.59425,8 8,8c4.40575,0 8,-3.59425 8,-8c0,-4.40575 -3.59425,-8 -8,-8zM35,13c3.32425,0 6,2.67575 6,6c0,3.32425 -2.67575,6 -6,6c-3.32425,0 -6,-2.67575 -6,-6c0,-3.32425 2.67575,-6 6,-6zM9,14c-0.55226,0.00006 -0.99994,0.44774 -1,1v10c0.00006,0.55226 0.44774,0.99994 1,1h8c0.55226,-0.00006 0.99994,-0.44774 1,-1v-10c-0.00006,-0.55226 -0.44774,-0.99994 -1,-1zM10,16h6v8h-6zM13,28c-2.74958,0 -5,2.25042 -5,5c0,2.74958 2.25042,5 5,5c2.74958,0 5,-2.25042 5,-5c0,-2.74958 -2.25042,-5 -5,-5zM13,30c1.6687,0 3,1.3313 3,3c0,1.6687 -1.3313,3 -3,3c-1.6687,0 -3,-1.3313 -3,-3c0,-1.6687 1.3313,-3 3,-3zM22,34c-1.10457,0 -2,0.89543 -2,2c0,1.10457 0.89543,2 2,2c1.10457,0 2,-0.89543 2,-2c0,-1.10457 -0.89543,-2 -2,-2z"></path></g></g></svg>