<svg xmlns="http://www.w3.org/2000/svg" xmlns:xlink="http://www.w3.org/1999/xlink" viewBox="0,0,256,256" width="100px" height="100px" fill-rule="nonzero"><g fill="#15a2e1" fill-rule="nonzero" stroke="none" stroke-width="1" stroke-linecap="butt" stroke-linejoin="miter" stroke-miterlimit="10" stroke-dasharray="" stroke-dashoffset="0" font-family="none" font-weight="none" font-size="none" text-anchor="none" style="mix-blend-mode: normal"><g transform="scale(5.12,5.12)"><path d="M34,1.91602c-1.70211,0 -3.08398,1.38295 -3.08398,3.08398v2c0.0004,0.5816 0.45986,1.05917 1.04102,1.08203c-0.20517,3.06761 -1.25009,5.45771 -2.37109,7.99219c-1.25,2.82614 -2.58594,5.83853 -2.58594,9.88281c0,5.97133 2,9.63755 2,12.04297c0,1.15371 -0.43043,2.31832 -0.92187,3.48242c-0.49144,1.1641 -1.07812,2.30048 -1.07812,3.60547c0,1.26631 0.72657,2.18183 1.41602,2.55273c0.68945,0.3709 1.36133,0.35938 1.36133,0.35938h13.44531c0,0 0.67188,0.01152 1.36133,-0.35937c0.68945,-0.3709 1.41602,-1.28642 1.41602,-2.55273c0,-1.30499 -0.58669,-2.44137 -1.07812,-3.60547c-0.49144,-1.1641 -0.92187,-2.32871 -0.92187,-3.48242c0,-2.40426 2,-6.07164 2,-12.04297c0,-4.04428 -1.33593,-7.05668 -2.58594,-9.88281c-1.121,-2.53447 -2.16592,-4.92458 -2.37109,-7.99219c0.58115,-0.02286 1.04062,-0.50043 1.04102,-1.08203v-2c0,-1.70104 -1.38187,-3.08398 -3.08398,-3.08398zM34,4.08398h5c0.41189,0 0.91602,0.50505 0.91602,0.91602v0.91602h-6.83203v-0.91602c0,-0.41096 0.50413,-0.91602 0.91602,-0.91602zM16.96094,8c-8.10865,0 -12.88092,5.44559 -12.95313,11.16211c-0.00546,0.0434 -0.00807,0.08712 -0.00781,0.13086c-0.00049,0.03455 0.00082,0.0691 0.00391,0.10352c0.013,2.77906 0.66599,8.65095 1.31836,13.98047c0.65651,5.36338 1.30966,10.04758 1.31445,10.08203c0.20654,2.05626 1.82596,3.73299 3.91797,4.12891c0.0078,0.00139 0.01561,0.0027 0.02344,0.00391c0.66344,0.10953 2.01371,0.18999 3.53906,0.26953c1.49526,0.07798 3.02266,0.13445 3.88086,0.13672c0.00129,0 0.00457,0 0.00586,0c0.02406,0.00152 0.04816,0.00217 0.07227,0.00195c2.00116,0 4.27725,-0.22674 5.53711,-0.49414h0.00195c0.7545,-0.15045 1.43666,-0.48177 2.00586,-0.93359c0.29311,-0.21746 0.44449,-0.57733 0.39495,-0.93893c-0.04954,-0.3616 -0.29212,-0.6675 -0.63292,-0.79812c-0.3408,-0.13062 -0.72569,-0.06522 -1.00422,0.17064c-0.33235,0.26381 -0.72546,0.45334 -1.15625,0.53906c-0.00456,0.00062 -0.00912,0.00127 -0.01367,0.00195c-0.9274,0.19778 -3.09371,0.40987 -4.88672,0.43164c-1.38891,-0.60126 -2.48849,-2.04126 -3.2207,-4.04492c-0.75476,-2.06538 -1.10156,-4.61635 -1.10156,-6.93359c0,-5.98844 1.6432,-9.40639 3.21094,-11.55664c0.00197,-0.00324 0.00392,-0.0065 0.00586,-0.00977c0.5005,-0.70254 1.92897,-1.30467 3.71484,-1.78125c1.66098,-0.44325 3.52469,-0.86721 5.14063,-1.61719c0.3085,-0.02294 0.58901,-0.18736 0.75977,-0.44531c0.01085,-0.01533 0.02128,-0.03096 0.03125,-0.04687c0.0125,-0.02105 0.02423,-0.04255 0.03516,-0.06445c0.13074,-0.25166 0.14849,-0.54699 0.04883,-0.8125c-0.03636,-0.40404 -0.15687,-1.26225 -0.89453,-2.25195c-0.91841,-1.23221 -2.78272,-2.32572 -5.86719,-2.37891c-0.84703,-0.87437 -1.74964,-1.49495 -2.5957,-1.76758c-0.74816,-0.24108 -1.44194,-0.30428 -1.94727,-0.30664c-0.50533,-0.0024 -0.82226,0.05469 -0.82227,0.05469c-0.32027,0.05808 -0.59224,0.26839 -0.72904,0.56374c-0.1368,0.29535 -0.1213,0.6388 0.04154,0.92064c0,0 0.15023,0.38955 0.23242,0.56641c-2.89643,0.17334 -4.90159,1.40029 -6.07617,2.67969c-0.55922,0.60912 -0.93314,1.212 -1.20117,1.71484c-0.50771,-0.39615 -0.7462,-0.77055 -0.76953,-1.34766c-0.00125,-0.03661 -0.00451,-0.07312 -0.00977,-0.10937c1.00833,-3.78865 4.55839,-7.00391 10.65234,-7.00391c6.54945,0 8.88267,2.78915 9.81641,4.48242c0.17003,0.31739 0.49755,0.51887 0.8575,0.52754c0.35996,0.00866 0.69679,-0.17684 0.88189,-0.48568c0.1851,-0.30884 0.1899,-0.69334 0.01256,-1.0067c-1.21026,-2.19473 -4.42381,-5.51758 -11.56836,-5.51758zM33.95508,8.08398h5.08984c0.21253,3.50529 1.40619,6.23309 2.54102,8.79883c0.3148,0.71172 0.62348,1.41264 0.91016,2.11914l-1.81836,0.00391l-1.75,-4.37695c-0.14732,-0.38488 -0.51563,-0.63999 -0.92773,-0.64258c-0.3352,-0.00153 -0.64887,0.16496 -0.83544,0.44344c-0.18657,0.27848 -0.22122,0.63191 -0.09229,0.94132l1.45508,3.63867l-4.05859,0.00586l1.45898,-3.64453c0.13031,-0.31406 0.09212,-0.67282 -0.10139,-0.95241c-0.1935,-0.27959 -0.51581,-0.44172 -0.85564,-0.4304c-0.40085,0.01406 -0.75452,0.26624 -0.89844,0.64063l-1.75586,4.39063l-1.82031,0.00391c0.28908,-0.7137 0.60002,-1.42178 0.91797,-2.14063c1.13483,-2.56574 2.32849,-5.29354 2.54102,-8.79883zM16.5332,14.125c0.21355,0.03312 0.18934,-0.0363 0.44141,0.04492c1.02518,0.33034 2.23967,1.07386 3.09766,3.20313c0.12869,0.33807 0.42991,0.58029 0.78771,0.63344c0.35781,0.05315 0.71643,-0.09105 0.93783,-0.37711c0.22141,-0.28606 0.27109,-0.66938 0.12992,-1.00243c-0.05938,-0.14737 -0.16079,-0.19709 -0.22461,-0.33594c1.39572,0.29144 2.34089,0.77733 2.74414,1.31836c0.30457,0.40863 0.23963,0.50718 0.30078,0.77148c-1.25314,0.50519 -2.7493,0.91552 -4.33203,1.33789c-1.75185,0.4675 -3.49829,0.98505 -4.59961,2.28711c-1.60353,-1.14567 -3.82121,-1.56692 -5.72851,-2.17383c-0.44343,-0.1411 -0.84508,-0.295 -1.23828,-0.44922c0.19561,-0.36291 0.47802,-0.81038 0.91211,-1.2832c0.93051,-1.01354 2.45828,-1.99534 5.03125,-2.05859c0.10322,0.6055 0.27378,1.1256 0.21094,1.875c-0.04178,0.36223 0.11689,0.71849 0.41409,0.92974c0.2972,0.21125 0.68581,0.24402 1.01419,0.08551c0.32837,-0.15851 0.54445,-0.48317 0.56391,-0.84728c0.13243,-1.57918 -0.14949,-2.96192 -0.46289,-3.95898zM6.08594,20.20313c0.01896,0.0136 0.02972,0.03747 0.04883,0.05078c0.97336,0.67814 2.14781,1.1032 3.3457,1.48438c2.02387,0.644 4.11225,1.2476 5.20117,1.94922c-1.43711,2.46845 -2.68164,6.0492 -2.68164,11.3125c0,2.51176 0.35617,5.24802 1.22266,7.61914c0.44141,1.20791 1.02559,2.33727 1.7832,3.27148c-0.3058,-0.01396 -0.47745,-0.0114 -0.7832,-0.02734c-1.49553,-0.07799 -2.99267,-0.1932 -3.29883,-0.24219c-1.25568,-0.23968 -2.18555,-1.25294 -2.29687,-2.36133c-0.0017,-0.01306 -0.00365,-0.02608 -0.00586,-0.03906c0,0 -0.65592,-4.72394 -1.3125,-10.08789c-0.6134,-5.0112 -1.14521,-10.25154 -1.22266,-12.92969zM43.21875,21.00195c0.46941,1.50089 0.78125,3.09848 0.78125,4.95508c0,1.10788 -0.09528,2.10179 -0.22461,3.04297h-14.55078c-0.12933,-0.94113 -0.22461,-1.93509 -0.22461,-3.04297c0,-1.84756 0.30788,-3.43904 0.77344,-4.93359l3.00781,-0.00391c0.13349,0.02688 0.27107,0.02622 0.4043,-0.00195l6.58398,-0.00977c0.16414,0.04169 0.33619,0.04102 0.5,-0.00195zM19.5,30c-0.82843,0 -1.5,0.67157 -1.5,1.5c0,0.82843 0.67157,1.5 1.5,1.5c0.82843,0 1.5,-0.67157 1.5,-1.5c0,-0.82843 -0.67157,-1.5 -1.5,-1.5zM29.57227,31h2.09961c0.14605,1.22272 0.47027,2.61243 0.76367,3.89453c0.30903,1.35042 0.56445,2.63049 0.56445,3.10547c0,1.15371 -0.42694,2.28988 -0.91797,3.43164c-0.49103,1.14176 -1.08203,2.26337 -1.08203,3.56836c0,0.36666 0.07047,0.69817 0.18164,1h-1.4043c0,0 -0.21451,-0.01179 -0.41406,-0.11914c-0.19955,-0.10735 -0.36328,-0.14628 -0.36328,-0.79297c0,-0.60801 0.41332,-1.62347 0.92188,-2.82812c0.50856,-1.20465 1.07813,-2.62747 1.07813,-4.25977c0,-2.16371 -0.83639,-4.28216 -1.42773,-7zM33.70313,31h5.59375c-0.13939,1.00987 -0.40825,2.246 -0.68359,3.44922c-0.31022,1.35558 -0.61328,2.56576 -0.61328,3.55078c0,1.63229 0.57306,3.03917 1.08203,4.22266c0.50897,1.18349 0.91797,2.16934 0.91797,2.77734c0,0.59285 -0.18711,0.6707 -0.49023,0.82227c-0.30312,0.15156 -0.63867,0.17773 -0.63867,0.17773h-4.74219c0,0 -0.33555,-0.02617 -0.63867,-0.17773c-0.30312,-0.15156 -0.49023,-0.22942 -0.49023,-0.82227c0,-0.60801 0.409,-1.59386 0.91797,-2.77734c0.50897,-1.18349 1.08203,-2.59036 1.08203,-4.22266c0,-0.98502 -0.30306,-2.1952 -0.61328,-3.55078c-0.27535,-1.20322 -0.54421,-2.43935 -0.68359,-3.44922zM41.32813,31h2.09961c-0.59135,2.71802 -1.42773,4.83683 -1.42773,7c0,1.63229 0.56956,3.05512 1.07813,4.25977c0.50856,1.20465 0.92188,2.22012 0.92188,2.82813c0,0.64669 -0.16373,0.68562 -0.36328,0.79297c-0.19955,0.10735 -0.41406,0.11914 -0.41406,0.11914h-1.4043c0.11117,-0.30183 0.18164,-0.63334 0.18164,-1c0,-1.30499 -0.591,-2.4266 -1.08203,-3.56836c-0.49103,-1.14176 -0.91797,-2.27793 -0.91797,-3.43164c0,-0.47498 0.25542,-1.75505 0.56445,-3.10547c0.2934,-1.28211 0.61762,-2.67181 0.76367,-3.89453zM22,34c-0.55228,0 -1,0.44772 -1,1c0,0.55228 0.44772,1 1,1c0.55228,0 1,-0.44772 1,-1c0,-0.55228 -0.44772,-1 -1,-1z"></path></g></g></svg>