<svg xmlns="http://www.w3.org/2000/svg" xmlns:xlink="http://www.w3.org/1999/xlink" viewBox="0,0,256,256" width="100px" height="100px" fill-rule="nonzero"><g fill="#e3002c" fill-rule="nonzero" stroke="none" stroke-width="1" stroke-linecap="butt" stroke-linejoin="miter" stroke-miterlimit="10" stroke-dasharray="" stroke-dashoffset="0" font-family="none" font-weight="none" font-size="none" text-anchor="none" style="mix-blend-mode: normal"><g transform="scale(5.12,5.12)"><path d="M14.13086,4c-7.792,0 -14.13086,6.36736 -14.13086,14.19336c0,1.326 0.12752,2.59164 0.35352,3.80664h2.04687c-0.256,-1.213 -0.40039,-2.47864 -0.40039,-3.80664c0,-6.723 5.44086,-12.19336 12.13086,-12.19336c3.69,0 6.81883,1.56258 9.29883,4.64258c0.192,0.24 0.75977,0.9707 0.75977,0.9707c0.379,0.488 1.20108,0.488 1.58008,0c0,-0.001 0.56477,-0.72775 0.75977,-0.96875c2.444,-3.039 5.67384,-4.64453 9.33984,-4.64453c6.69,0 12.13086,5.47036 12.13086,12.19336c0,11.599 -10.54128,18.68828 -18.23828,23.86328c-1.806,1.214 -3.43962,2.53858 -4.76562,3.64258c-1.059,-0.87 -3.19477,-2.59253 -4.75977,-3.64453c-5.24,-3.524 -11.79622,-7.93669 -15.44922,-14.05469h-2.31836c3.719,7.011 10.93134,11.8688 16.65234,15.7168c2.024,1.36 5.20433,4.02183 5.23633,4.04883c0.172,0.145 0.39319,0.21289 0.61719,0.21289c0.259,0 0.52166,-0.09081 0.72266,-0.25781c1.333,-1.116 3.15969,-2.64591 5.17969,-4.00391c8.071,-5.428 19.12305,-12.85944 19.12305,-25.52344c0,-7.826 -6.33886,-14.19336 -14.13086,-14.19336c-4.289,0 -8.05462,1.86086 -10.89062,5.38086c-2.835,-3.52 -6.58666,-5.38086 -10.84766,-5.38086zM17.49023,11c-0.47066,0.00513 -0.87405,0.33776 -0.96875,0.79883l-2.80078,13.60742l-1.78516,-4.75781c-0.14001,-0.37189 -0.48691,-0.62562 -0.88374,-0.64637c-0.39683,-0.02075 -0.7683,0.1954 -0.94634,0.55066l-1.72266,3.44727h-6.38281c-0.36064,-0.0051 -0.69608,0.18438 -0.87789,0.49587c-0.18181,0.3115 -0.18181,0.69676 0,1.00825c0.18181,0.3115 0.51725,0.50097 0.87789,0.49587h7c0.37879,0.00003 0.72509,-0.21395 0.89453,-0.55273l0.97461,-1.94922l2.19531,5.85352c0.15762,0.41544 0.57043,0.67708 1.0134,0.64227c0.44297,-0.0348 0.80986,-0.3577 0.90066,-0.79266l2.45898,-11.94727l3.07813,16.92578c0.07994,0.44148 0.44411,0.77569 0.89081,0.81754c0.4467,0.04185 0.86661,-0.21891 1.02716,-0.63785l4.05469,-10.54297l2.07617,5.53516c0.1342,0.35554 0.45832,0.6043 0.83647,0.64199c0.37815,0.03769 0.74499,-0.1422 0.94673,-0.46425l2.20703,-3.5293h4.7168c0.35663,0.61771 1.01525,0.99874 1.72852,1c1.10457,0 2,-0.89543 2,-2c0,-1.10457 -0.89543,-2 -2,-2c-0.71397,0.00056 -1.37349,0.38169 -1.73047,1h-5.26953c-0.3448,0.00029 -0.66514,0.17817 -0.84766,0.4707l-1.42773,2.2832l-2.28906,-6.10547c-0.14611,-0.38841 -0.5169,-0.64623 -0.93188,-0.64796c-0.41497,-0.00173 -0.78791,0.25298 -0.93726,0.64015l-3.7207,9.67188l-3.36133,-18.49219c-0.08751,-0.47898 -0.50725,-0.82534 -0.99414,-0.82031z"></path></g></g></svg>