<svg xmlns="http://www.w3.org/2000/svg" xmlns:xlink="http://www.w3.org/1999/xlink" viewBox="0,0,256,256" width="100px" height="100px" fill-rule="nonzero"><g fill="#8f3bbb" fill-rule="nonzero" stroke="none" stroke-width="1" stroke-linecap="butt" stroke-linejoin="miter" stroke-miterlimit="10" stroke-dasharray="" stroke-dashoffset="0" font-family="none" font-weight="none" font-size="none" text-anchor="none" style="mix-blend-mode: normal"><g transform="scale(5.12,5.12)"><path d="M11,7c-5.51172,0 -10,4.48828 -10,10c0,3.25 1.58984,6.11328 4,7.9375v0.0625c0,1.29297 0.84375,2.39453 2,2.8125v12.1875c-0.00781,0.26563 0.09375,0.52734 0.28125,0.71875l2,2c0.19141,0.1875 0.45313,0.28906 0.71875,0.28125h2c0.26563,0.00781 0.52734,-0.09375 0.71875,-0.28125l2,-2c0.1875,-0.19141 0.28906,-0.45312 0.28125,-0.71875v-12.1875c1.15625,-0.41797 2,-1.51953 2,-2.8125v-0.0625c2.41016,-1.82422 4,-4.6875 4,-7.9375c0,-5.51172 -4.48828,-10 -10,-10zM11,9c4.42969,0 8,3.57031 8,8c0,2.78125 -1.41797,5.22266 -3.5625,6.65625c-0.26953,0.18359 -0.43359,0.48828 -0.4375,0.8125v0.53125c0,0.56641 -0.43359,1 -1,1h-6c-0.56641,0 -1,-0.43359 -1,-1v-0.53125c-0.00391,-0.32422 -0.16797,-0.62891 -0.4375,-0.8125c-2.14453,-1.43359 -3.5625,-3.875 -3.5625,-6.65625c0,-4.42969 3.57031,-8 8,-8zM11,11c-3.30078,0 -6,2.69922 -6,6c0,0.55078 0.44922,1 1,1h10c0.55078,0 1,-0.44922 1,-1c0,-3.30078 -2.69922,-6 -6,-6zM24.8125,12c-0.47656,0.08984 -0.82031,0.51172 -0.8125,1v8c0,0.55078 0.44922,1 1,1h22c0.55078,0 1,-0.44922 1,-1v-8c0,-0.55078 -0.44922,-1 -1,-1h-22c-0.03125,0 -0.0625,0 -0.09375,0c-0.03125,0 -0.0625,0 -0.09375,0zM11,13c1.86719,0 3.36328,1.28125 3.8125,3h-7.625c0.44922,-1.71875 1.94531,-3 3.8125,-3zM26,14h20v6h-20zM9,28h4v3h-1v2h1v3h-1v2h1v1.5625l-1.4375,1.4375h-1.125l-1.4375,-1.4375zM24.8125,28c-0.47656,0.08984 -0.82031,0.51172 -0.8125,1v8c0,0.55078 0.44922,1 1,1h22c0.55078,0 1,-0.44922 1,-1v-8c0,-0.55078 -0.44922,-1 -1,-1h-22c-0.03125,0 -0.0625,0 -0.09375,0c-0.03125,0 -0.0625,0 -0.09375,0zM26,30h20v6h-20z"></path></g></g></svg>