<svg xmlns="http://www.w3.org/2000/svg" xmlns:xlink="http://www.w3.org/1999/xlink" viewBox="0,0,256,256" width="100px" height="100px" fill-rule="nonzero"><g fill="#ef9aa1" fill-rule="nonzero" stroke="none" stroke-width="1" stroke-linecap="butt" stroke-linejoin="miter" stroke-miterlimit="10" stroke-dasharray="" stroke-dashoffset="0" font-family="none" font-weight="none" font-size="none" text-anchor="none" style="mix-blend-mode: normal"><g transform="scale(5.12,5.12)"><path d="M25,2c-12.69047,0 -23,10.30953 -23,23c0,12.69047 10.30953,23 23,23c7.61028,0 14.36661,-3.70526 18.55078,-9.4082c0.22434,-0.28714 0.27476,-0.67357 0.1316,-1.00865c-0.14316,-0.33508 -0.45724,-0.56579 -0.8198,-0.60218c-0.36256,-0.03639 -0.71623,0.12729 -0.92313,0.42724c-3.82182,5.20906 -9.97773,8.5918 -16.93945,8.5918c-11.60953,0 -21,-9.39047 -21,-21c0,-11.60953 9.39047,-21 21,-21c6.96173,0 13.11763,3.38274 16.93945,8.5918c0.2069,0.29995 0.56056,0.46363 0.92313,0.42724c0.36256,-0.03639 0.67664,-0.2671 0.8198,-0.60218c0.14316,-0.33508 0.09274,-0.72151 -0.1316,-1.00865c-4.18418,-5.70294 -10.94051,-9.4082 -18.55078,-9.4082zM38.99023,15.99023c-0.40692,0.00011 -0.77321,0.24676 -0.92633,0.62377c-0.15312,0.37701 -0.06255,0.80921 0.22907,1.09303l6.29297,6.29297h-21.58594c-0.36064,-0.0051 -0.69608,0.18438 -0.87789,0.49587c-0.18181,0.3115 -0.18181,0.69676 0,1.00825c0.18181,0.3115 0.51725,0.50097 0.87789,0.49587h21.58594l-6.29297,6.29297c-0.26124,0.25082 -0.36648,0.62327 -0.27512,0.97371c0.09136,0.35044 0.36503,0.62411 0.71547,0.71547c0.35044,0.09136 0.72289,-0.01388 0.97371,-0.27512l7.91211,-7.91211c0.24834,-0.18944 0.39391,-0.48403 0.39353,-0.79638c-0.00038,-0.31235 -0.14668,-0.60658 -0.39548,-0.79541l-7.91016,-7.91016c-0.18827,-0.19353 -0.4468,-0.30272 -0.7168,-0.30274z"></path></g></g></svg>