<?xml version="1.0" encoding="UTF-8"?>
<svg id="Layer_1" data-name="Layer 1" xmlns="http://www.w3.org/2000/svg" xmlns:xlink="http://www.w3.org/1999/xlink" viewBox="0 0 687.87 231.721">
  <defs>
    <style>
      .cls-1 {
        fill: #199be2;
      }

      .cls-2 {
        fill: url(#linear-gradient);
      }

      .cls-3 {
        fill: #f09ca2;
      }

      .cls-4 {
        fill: #eb6773;
      }

      .cls-5 {
        fill: url(#linear-gradient-2);
      }

      .cls-6 {
        fill: #e52030;
      }

      .cls-7 {
        fill: url(#linear-gradient-4);
      }

      .cls-8 {
        fill: url(#linear-gradient-3);
      }

      .cls-9 {
        fill: #b31523;
      }
    </style>
    <linearGradient id="linear-gradient" x1="0" y1="115.861" x2="687.87" y2="115.861" gradientTransform="matrix(1, 0, 0, 1, 0, 0)" gradientUnits="userSpaceOnUse">
      <stop offset=".2" stop-color="#8f3bbb"/>
      <stop offset=".405" stop-color="#33abe6"/>
      <stop offset=".465" stop-color="#34a9e4"/>
      <stop offset=".487" stop-color="#3ba4dd"/>
      <stop offset=".503" stop-color="#479cd2"/>
      <stop offset=".515" stop-color="#588fc1"/>
      <stop offset=".526" stop-color="#6e7fac"/>
      <stop offset=".535" stop-color="#896b91"/>
      <stop offset=".544" stop-color="#a95372"/>
      <stop offset=".552" stop-color="#ce394f"/>
      <stop offset=".556" stop-color="#e62838"/>
      <stop offset=".751" stop-color="#eb6773"/>
      <stop offset=".913" stop-color="#f09ca2"/>
    </linearGradient>
    <linearGradient id="linear-gradient-2" x1="-113.827" y1="326.748" x2="-113.827" y2="323.579" gradientTransform="translate(725.197 1720.263) scale(5 -5)" gradientUnits="userSpaceOnUse">
      <stop offset="0" stop-color="#32bdef"/>
      <stop offset="1" stop-color="#1ea2e4"/>
    </linearGradient>
    <linearGradient id="linear-gradient-3" x1="-113.827" y1="325.627" x2="-113.827" y2="320.055" xlink:href="#linear-gradient-2"/>
    <linearGradient id="linear-gradient-4" x1="-114.651" y1="323.602" x2="-111.651" y2="314.822" gradientTransform="translate(725.197 1720.263) scale(5 -5)" gradientUnits="userSpaceOnUse">
      <stop offset="0" stop-color="#9332bf"/>
      <stop offset="1" stop-color="#912fbd"/>
    </linearGradient>
  </defs>
  <g>
    <path class="cls-2" d="M22.968,231.537c-1.392,.308-2.4,.231-3.016-.232-.62-.62-.388-1.008,.696-1.16,3.864-1.239,6.88-4.023,9.048-8.352,1.7-3.56,3.712-8.236,6.032-14.036,2.32-5.8,4.872-12.724,7.656-20.764h-.232c-.156,.155-.312,.231-.464,.231-.156,0-.232-.076-.232-.231-1.548-.152-3.172-.269-4.872-.349-1.704-.076-3.328-.116-4.872-.116-14.076,0-24.824,2.553-32.248,7.656l-.464-.464c4.64-4.484,8.315-7.964,11.02-10.44,2.704-2.472,4.6-4.02,5.684-4.64,5.256-3.4,12.296-5.104,21.112-5.104,1.392,0,2.784,.039,4.176,.115,1.392,.08,2.86,.196,4.408,.349,2.784-9.896,4.908-18.984,6.38-27.261,1.468-8.271,2.204-15.735,2.204-22.388,0-15.464-4.408-23.044-13.224-22.735-.464,0-1.392,.231-2.784,.695,2.937,.928,4.408,3.328,4.408,7.192,0,4.332-2.012,7.812-6.032,10.439,.152-3.092-.428-5.72-1.74-7.888-1.316-2.164-3.364-3.248-6.148-3.248h-1.16c-.464,0-.928,.08-1.392,.232,2.008-3.093,4.444-5.568,7.308-7.424,2.86-1.856,6.224-2.784,10.092-2.784,10.208,0,15.312,7.735,15.312,23.199,0,2.477-.156,5.261-.464,8.353-.312,3.096-.775,6.42-1.392,9.976,6.032-22.58,13.688-55.523,22.968-98.831-3.868-.929-7.736-1.393-11.6-1.393-6.344,0-12.064,1.16-17.168,3.48-6.344,3.096-9.512,7.424-9.512,12.992,0,1.083,.152,2.243,.464,3.479,.308,1.239,.772,2.552,1.392,3.944l2.088,4.176c0,2.476-3.016,5.26-9.048,8.352-1.548-2.008-2.32-4.64-2.32-7.888,0-8.04,4.328-16.78,12.992-26.216,8.66-9.125,17.088-13.688,25.288-13.688,2.784,0,6.108,.464,9.976,1.392l4.408-20.184c1.7-3.248,3.168-5.488,4.408-6.728,1.7-1.7,3.944-2.784,6.728-3.248-2.939,3.868-6.496,14.308-10.672,31.32l10.672,3.48c1.7-1.393,5.413-2.784,11.136-4.176,1.7-.464,3.324-.696,4.872-.696-.776,.929-1.508,2.088-2.204,3.479-.696,1.393-1.432,2.94-2.204,4.641,4.484,.928,8.776,1.664,12.876,2.204,4.096,.544,8.004,.812,11.716,.812,10.516,0,17.32-2.783,20.416-8.352,1.08-1.855,2.008-2.784,2.784-2.784,.308,.312,.464,.544,.464,.696,0,.464-.232,1.161-.696,2.088-5.568,12.992-15.16,19.488-28.768,19.488-3.248,0-6.768-.269-10.556-.812-3.792-.54-7.928-1.352-12.412-2.436-2.012,5.724-4.372,14.348-7.076,25.867-2.708,11.524-5.916,25.948-9.628,43.269-3.248,15.775-6.148,28.691-8.7,38.744-2.552,10.056-4.835,17.247-6.844,21.576,6.804,1.083,12.836,1.972,18.096,2.668,5.256,.695,9.82,1.044,13.688,1.044,4.64,0,8.892-.465,12.76-1.393,3.864-.928,7.424-2.164,10.672-3.712,.464,0,.696,.156,.696,.464,0,1.856-4.176,5.724-12.528,11.601-5.416,3.403-11.524,5.104-18.328,5.104-3.56,0-15.544-1.624-35.96-4.872l-9.28,4.408-.464-.464c.616-.772,1.16-1.584,1.624-2.437,.464-.848,.928-1.584,1.392-2.203l-6.264-.929c-7.424,21.188-13.456,33.792-18.096,37.816-4.952,3.864-7.968,5.876-9.048,6.032Zm39.44-55.217c10.516-24.744,20.028-62.483,28.536-113.216l3.016-17.864-8.816-2.552c-1.24,4.952-3.288,14.192-6.148,27.724-2.864,13.536-6.612,31.36-11.252,53.477-1.548,7.116-3.444,14.928-5.684,23.432-2.244,8.508-4.912,17.712-8.004,27.608,2.937,.312,5.72,.775,8.352,1.392Z"/>
    <path class="cls-2" d="M132.006,195.808c-1.083,0-2.204-.696-3.364-2.088s-1.74-2.628-1.74-3.712v-.696l2.088-3.943c1.236-3.557,2.472-7.849,3.712-12.876,1.236-5.024,2.396-10.788,3.48-17.284,.152-1.545,.384-3.208,.696-4.988,.308-1.776,.616-3.828,.928-6.148,.772-3.092,3.168-4.64,7.192-4.64,1.236,0,1.856,.464,1.856,1.392,0,.312-.156,1.393-.464,3.248-.312,1.856-.776,4.408-1.392,7.656-.62,3.56-1.356,7.424-2.204,11.601-.852,4.176-1.82,8.663-2.9,13.456l10.904-18.328c5.412-9.124,9.976-13.688,13.688-13.688,2.32,0,3.556,1.393,3.712,4.176,.464,6.496,.812,12.916,1.044,19.257,.232,6.344,1.08,11.6,2.552,15.775,1.468,4.176,4.136,6.264,8.004,6.264,2.628,0,5.22-.54,7.772-1.623,2.552-1.081,5.452-3.133,8.7-6.148s7.112-7.46,11.6-13.34c.152-.309,.464-.696,.928-1.16,.464-.464,1.004-.696,1.624-.696,.616,0,.928,.312,.928,.929s-.348,1.472-1.044,2.552c-.696,1.084-1.2,1.855-1.508,2.319-4.176,6.188-8.896,11.368-14.152,15.545-5.26,4.176-10.208,6.264-14.848,6.264-6.808,0-11.795-3.44-14.964-10.324-3.172-6.88-5.376-16.664-6.612-29.348-2.476,2.632-5.376,6.575-8.7,11.832-3.328,5.26-7.156,11.987-11.484,20.184-.312,.775-.776,1.664-1.392,2.668-.62,1.008-1.316,2.284-2.088,3.828-.62,1.392-1.472,2.088-2.552,2.088Z"/>
    <path class="cls-2" d="M261.926,198.36c-5.88,0-11.292-1.703-16.24-5.104-4.952-3.4-8.508-9.124-10.672-17.168-.156-1.08-.428-2.82-.812-5.22-.388-2.396-.812-5.604-1.275-9.629-4.641,4.177-10.288,11.448-16.937,21.809-.775,1.239-1.74,2.748-2.9,4.523-1.16,1.78-2.592,3.828-4.292,6.148-.62,.616-1.472,.928-2.552,.928-2.784,0-4.176-1.544-4.176-4.64,0-.616,2.008-7.192,6.032-19.72,26.912-82.744,41.912-125.664,45.008-128.76,.616-.617,1.624-.929,3.017-.929,4.947,0,7.424,1.78,7.424,5.336,0,2.168-2.088,8.584-6.265,19.257-3.56,8.971-7.191,17.863-10.903,26.68-3.712,8.815-7.424,17.632-11.137,26.447-11.756,28.769-17.556,45.24-17.399,49.416l24.824-20.647c5.412-4.484,10.516-7.772,15.312-9.86,4.792-2.088,8.969-3.132,12.528-3.132,7.112,0,10.672,3.56,10.672,10.672,0,3.712-1.664,7.156-4.988,10.324-3.327,3.172-7.308,5.724-11.948,7.656-4.64,1.936-9.048,2.899-13.224,2.899-2.168,0-4.256-.384-6.264-1.16,0,7.736,1.776,14.309,5.336,19.721,2.008,3.096,4.444,5.3,7.308,6.611,2.86,1.316,5.837,1.973,8.933,1.973s6.264-.54,9.512-1.624c3.248-1.08,6.185-2.396,8.815-3.944,4.641-2.937,8.469-5.8,11.484-8.584s6.068-5.952,9.164-9.512c.772-.772,1.392-1.16,1.856-1.16,.616,0,.928,.388,.928,1.16,0,.464-.232,1.124-.696,1.972-.464,.852-.852,1.508-1.16,1.972-2.167,2.784-4.64,5.492-7.424,8.12-2.784,2.632-6.111,5.26-9.976,7.889-4.024,2.939-8.393,5.22-13.108,6.844-4.72,1.624-9.319,2.436-13.804,2.436Zm-13.688-38.048c4.484,0,8.816-1.236,12.992-3.712,4.176-2.472,6.264-5.412,6.264-8.815,0-3.557-2.088-5.337-6.264-5.337-2.632,0-5.336,.853-8.12,2.553-2.784,1.703-5.416,3.676-7.888,5.916-2.476,2.243-4.72,4.371-6.729,6.38,2.473,2.012,5.721,3.016,9.744,3.016Z"/>
    <path class="cls-2" d="M357.044,206.016c-10.672,0-20.729-2.708-30.16-8.12-10.208-6.34-17.016-14.228-20.416-23.664-1.24-3.4-2.168-6.532-2.784-9.396-.62-2.86-.928-5.296-.928-7.309,0-4.947,1.776-7.424,5.336-7.424,1.08,0,1.7,.544,1.855,1.624,.772,2.94,1.469,5.416,2.088,7.424,.617,2.013,1.16,3.637,1.624,4.872,.772,2.168,1.776,4.177,3.017,6.032,1.236,1.856,2.552,3.636,3.944,5.336,7.268,8.2,17.012,12.296,29.231,12.296,2.164,0,4.716-.464,7.656-1.392,3.248-.928,5.104-1.393,5.567-1.393,.465,.156,.696,.389,.696,.696,0,2.784-5.88,4.176-17.632,4.176-16.704,0-27.688-5.72-32.944-17.168,9.28,20.729,23.816,31.088,43.616,31.088,21.344,0,38.124-9.359,50.344-28.071,3.864-5.876,7.732-13.881,11.601-24.013,3.864-10.128,7.808-22.388,11.832-36.771-1.548-.152-3.444-.348-5.685-.58-2.243-.232-4.68-.58-7.308-1.044-1.24,17.168-8.896,30.239-22.968,39.208,.928-1.393,1.392-3.092,1.392-5.104,0-1.235-.928-4.176-2.784-8.815,0-1.08,.385-2.704,1.16-4.872,.772-2.164,1.624-3.4,2.552-3.712l.465,.464c2.783,6.032,4.176,9.744,4.176,11.136,0,.62-.08,.928-.232,.928l-3.248,5.568c10.672-9.588,16.16-21.344,16.473-35.264-11.292-1.856-20.265-2.784-26.912-2.784-11.756,0-21.5,2.552-29.232,7.656l-.464-.696,7.424-5.8c6.34-5.257,16.084-7.889,29.232-7.889,2.628,0,5.567,.156,8.815,.465,3.248,.312,6.805,.775,10.672,1.392-.619-4.328-1.663-8.236-3.132-11.716-1.472-3.48-3.288-6.688-5.452-9.628-4.951-7.112-10.903-10.673-17.863-10.673-.929,0-2.128,.232-3.597,.697-1.472,.463-2.592,.695-3.363,.695-.465,0-.696-.152-.696-.464,0-2.472,2.86-3.712,8.584-3.712,8.352,0,15.312,3.867,20.88,11.6,4.484,6.652,7.192,14.464,8.12,23.433,1.7,.155,3.748,.428,6.147,.812,2.396,.388,5.221,.892,8.469,1.508,2.628-9.896,5.104-18.364,7.424-25.403,2.32-7.036,4.484-12.721,6.496-17.052-5.104-.309-10.712-1.005-16.82-2.089-6.111-1.08-12.724-2.396-19.836-3.944l-36.424-8.352c-7.271-1.393-13.884-2.473-19.836-3.248-5.956-.771-11.332-1.16-16.124-1.16-11.912,0-20.88,2.4-26.912,7.192-4.796,3.868-7.192,8.2-7.192,12.991,0,8.353,5.876,12.528,17.633,12.528,.464,0,.695,.08,.695,.232,0,.62-1.936,1.008-5.8,1.16-.312,0-.62,.116-.928,.348-.312,.232-.696,.349-1.16,.349-.775,0-1.856-.232-3.248-.696-6.032-2.009-9.048-6.185-9.048-12.528,0-1.7,.268-3.48,.812-5.336,.54-1.855,1.429-3.633,2.668-5.336,8.816-13.145,22.812-19.721,41.992-19.721,3.864,0,8.004,.272,12.412,.812,4.408,.544,9.164,1.276,14.268,2.204,8.505,2.168,19.141,4.64,31.9,7.425,12.76,2.783,27.724,5.955,44.892,9.512l3.017-5.104c2.628-3.712,6.264-7.112,10.904-10.208,5.104-2.936,9.743-4.408,13.92-4.408,2.164,0,4.676,.696,7.54,2.088,2.859,1.393,4.292,3.172,4.292,5.336,0,1.704-.696,2.553-2.089,2.553-.312,0-1.624-1.16-3.943-3.48-2.012-2.473-4.332-3.712-6.96-3.712-5.568,0-10.364,4.487-14.384,13.456l-2.089,4.408c2.009,.156,3.98,.232,5.916,.232h5.221c10.824,0,17.939-1.777,21.344-5.336,2.784-3.248,4.176-6.881,4.176-10.904,0-2.164-1.239-5.024-3.712-8.584,0-.772,.464-1.16,1.393-1.16,2.783,0,4.176,3.248,4.176,9.744,0,15.775-13.072,23.588-39.208,23.432h-1.856c-.62,1.393-2.052,5.684-4.292,12.876-2.244,7.192-5.376,17.208-9.396,30.044h4.872c4.02,0,7.691-.384,11.02-1.16,3.324-.771,6.38-1.855,9.164-3.248,.616,0,.928,.156,.928,.464,0,2.477-3.096,5.185-9.279,8.12-2.32,.929-4.757,1.664-7.309,2.204-2.552,.544-5.22,.812-8.004,.812h-1.855c-.62,0-1.24-.076-1.856-.232-4.332,14.076-8.932,26.256-13.804,36.54-4.872,10.288-9.86,18.832-14.964,25.636-14.849,18.713-33.488,28.072-55.912,28.072Z"/>
    <path class="cls-2" d="M487.658,196.504c-15.624,0-23.433-11.521-23.433-34.568,0-22.58,7.425-47.096,22.272-73.544,14.536-26.292,28.304-39.439,41.296-39.439,4.64,0,7.732,3.172,9.28,9.512v3.016c0,11.137-8.584,29.929-25.752,56.376-7.272,11.448-14.116,21.424-20.532,29.929-6.42,8.508-12.412,15.699-17.98,21.575,1.856,13.92,8.272,20.88,19.257,20.88,6.647,0,12.296-1.892,16.936-5.684,4.64-3.788,9.588-8.932,14.848-15.428,.929-.928,1.545-1.393,1.856-1.393,.464,0,.696,.389,.696,1.16,0,1.084-.544,2.477-1.624,4.176-6.652,8.509-12.916,14.54-18.792,18.097-5.88,3.556-11.988,5.336-18.328,5.336Zm-14.616-32.944c8.352-8.196,19.256-24.436,32.712-48.72,14.229-25.828,21.344-43.616,21.344-53.36,0-4.328-1.239-6.496-3.712-6.496-9.592,0-20.495,13.768-32.712,41.296-5.724,13.612-10.092,25.984-13.107,37.12-3.017,11.137-4.524,21.192-4.524,30.16Z"/>
    <path class="cls-2" d="M530.111,197.896c-5.724,0-8.584-4.176-8.584-12.527,0-2.165,.231-4.561,.695-7.192,.465-2.628,1.081-5.412,1.856-8.353,1.544-5.412,3.864-11.52,6.96-18.327,4.64-9.589,8.504-14.385,11.6-14.385,2.937,0,5.337,1.624,7.192,4.872,1.236-.464,2.24-.695,3.016-.695,4.329,0,6.496,3.248,6.496,9.743,0,2.784-.543,6.032-1.624,9.744-1.084,3.712-2.939,8.353-5.567,13.92,3.864,3.561,7.655,5.336,11.368,5.336,2.936,0,5.72-.731,8.352-2.203,2.628-1.469,5.568-4.368,8.816-8.7,.308-.309,.771-.464,1.392-.464,.464,0,.696,.464,.696,1.392s-.388,1.936-1.16,3.016c-2.012,2.632-4.524,4.988-7.54,7.076s-6.768,3.132-11.252,3.132-8.508-1.544-12.064-4.64c-5.88,12.84-12.76,19.256-20.647,19.256Zm4.176-6.496c2.164,0,4.872-2.088,8.12-6.264,1.392-1.7,2.552-3.44,3.479-5.22,.929-1.776,1.545-2.977,1.856-3.597-2.32-2.628-4.332-5.412-6.032-8.352-1.703-2.937-2.708-5.952-3.016-9.048-1.856,1.548-3.792,5.567-5.8,12.063-2.013,6.496-3.017,11.216-3.017,14.152,0,4.176,1.469,6.264,4.408,6.264Zm15.08-19.72c1.236-2.784,2.164-5.645,2.784-8.584,.616-2.937,.928-6.108,.928-9.512,0-5.257-1.548-7.889-4.64-7.889-2.94,0-4.408,2.864-4.408,8.584,0,2.477,.58,5.492,1.74,9.049,1.159,3.56,2.355,6.344,3.596,8.352Z"/>
    <path class="cls-2" d="M589.038,204.161c-7.888,0-11.832-5.028-11.832-15.08,0-6.185,1.624-13.688,4.872-22.504,1.7-4.484,3.479-8.312,5.336-11.484,1.855-3.168,3.864-5.76,6.032-7.772,2.319-2.319,4.64-3.479,6.96-3.479,1.855,0,2.784,.544,2.784,1.624,0,.464-.156,.852-.465,1.16-2.012,2.476-4.023,5.567-6.031,9.279-2.013,3.713-4.101,7.889-6.265,12.528-4.487,10.364-6.728,18.176-6.728,23.432,0,4.948,1.855,7.425,5.567,7.425,8.041,0,17.633-11.521,28.769-34.568,.616-1.544,1.276-3.132,1.972-4.756,.696-1.624,1.584-3.44,2.668-5.452,.616-1.08,1.933-1.624,3.944-1.624,2.472,0,3.864,1.084,4.176,3.248-4.332,9.592-6.496,17.632-6.496,24.128,0,2.784,.5,5.028,1.508,6.729,1.005,1.703,2.356,2.552,4.061,2.552,1.855,0,3.748-1.16,5.684-3.48,1.933-2.319,3.712-5.18,5.336-8.584,1.624-3.4,2.937-6.728,3.944-9.976,1.004-3.248,1.508-5.721,1.508-7.424,0-.929-.079-2.356-.231-4.292-.156-1.933-.232-3.284-.232-4.061,0-6.34,1.468-9.512,4.408-9.512,2.784,0,4.176,2.632,4.176,7.888,0,1.084-.271,2.824-.812,5.22-.544,2.4-.812,3.752-.812,4.061,.152,3.096,.696,6.304,1.624,9.628,.928,3.328,2.512,6.148,4.756,8.468,2.24,2.32,5.296,3.48,9.164,3.48,2.164,0,4.792-.889,7.888-2.668,3.093-1.776,6.265-4.832,9.513-9.164,.308-.309,.771-.464,1.392-.464,.464,0,.696,.464,.696,1.392s-.388,1.936-1.16,3.016c-2.012,2.784-4.64,5.376-7.888,7.772-3.248,2.399-6.729,3.596-10.44,3.596-6.032,0-10.479-1.739-13.34-5.22-2.863-3.48-5.067-7.772-6.612-12.876-.619,3.868-1.819,8.004-3.596,12.412-1.78,4.408-4.06,8.199-6.844,11.368-2.784,3.172-5.956,4.756-9.513,4.756-4.796,0-8.004-1.776-9.628-5.336-1.624-3.557-2.436-7.656-2.436-12.296-1.548,4.023-3.944,8.12-7.192,12.296s-6.691,7.656-10.323,10.439c-3.637,2.784-6.924,4.177-9.86,4.177Z"/>
  </g>
  <path class="cls-4" d="M199.998,33.664c-1.06,.716-2.05,1.532-2.954,2.437l-24.001,24.001c-6.044,6.474-7.82,15.85-4.564,24.086h0c8.236,3.256,17.612,1.48,24.086-4.564l24.001-24.001c.854-.854,1.629-1.784,2.315-2.777,3.525-5.104-13.803-22.612-18.883-19.182Z"/>
  <path class="cls-6" d="M180.973,52.169l-7.932,7.932c-6.044,6.474-7.82,15.85-4.564,24.086h0l13.89-13.89-1.394-18.128Z"/>
  <path class="cls-6" d="M200.495,71.692l-7.932,7.932c-6.474,6.044-15.85,7.82-24.086,4.564h0l13.89-13.89,18.128,1.394Z"/>
  <path class="cls-3" d="M221.928,34.263l-.554-2.327c-.076-.319-.325-.569-.645-.645l-2.327-.554c-6.775-1.809-14.005-.404-19.609,3.811l1.38,17.944,17.944,1.38c4.215-5.604,5.621-12.834,3.811-19.609Z"/>
  <path class="cls-9" d="M141.031,108.209L208.475,42.477c.474-.472,1.24-.47,1.712,.004,.47,.472,.47,1.236,0,1.708l-65.732,67.444c-.938,.953-2.472,.965-3.425,.027-.946-.932-.966-2.451-.044-3.407l.044-.044Z"/>
  <path class="cls-5" d="M169.379,90.55v9.686h-26.635v-9.686c.004-1.336,1.086-2.417,2.421-2.421h21.792c.123-.008,.246,.009,.363,.048,1.18,.17,2.057,1.181,2.058,2.373Z"/>
  <path class="cls-8" d="M170.786,136.557h-29.449c-2.058,0-3.891-1.301-4.571-3.243l-5.68-16.228c-1.022-2.921-.355-6.167,1.736-8.448l9.922-10.824h26.635l9.922,10.824c2.091,2.281,2.758,5.527,1.736,8.448l-5.68,16.228c-.68,1.942-2.513,3.243-4.571,3.243Z"/>
  <path class="cls-1" d="M167.321,88.177l-9.395,9.637-2.349,2.421-11.114,11.405c-.936,.963-2.476,.985-3.438,.048s-.985-2.476-.048-3.438h0c.026-.002,.047-.022,.048-.048l8.184-7.966,2.47-2.421,9.952-9.686h5.327c.123-.008,.246,.009,.363,.048Z"/>
  <path class="cls-7" d="M178.257,107.5h-44.392l-1.043,1.138c-2.091,2.281-2.758,5.527-1.736,8.448l5.68,16.228c.68,1.942,2.513,3.243,4.571,3.243h29.449c2.058,0,3.891-1.301,4.571-3.243l5.68-16.228c1.022-2.921,.355-6.167-1.736-8.448l-1.043-1.138Z"/>
</svg>